<svg xmlns="http://www.w3.org/2000/svg" width="98" height="25" viewBox="0 0 98 25" fill="none"><g clip-path="url(#clip0_4_393)"><mask id="mask0_4_393" style="mask-type:luminance" maskUnits="userSpaceOnUse" x="0" y="0" width="98" height="25"><path d="M97.9999 0.806152H0.596802V24.4052H97.9999V0.806152Z" fill="white"></path></mask><g mask="url(#mask0_4_393)"><mask id="mask1_4_393" style="mask-type:luminance" maskUnits="userSpaceOnUse" x="0" y="0" width="98" height="25"><path d="M97.9999 0.806396H0.596802V24.4054H97.9999V0.806396Z" fill="white"></path></mask><g mask="url(#mask1_4_393)"><mask id="mask2_4_393" style="mask-type:luminance" maskUnits="userSpaceOnUse" x="0" y="0" width="98" height="25"><path d="M0.596924 0.805908H97.9712V24.3845H0.596924V0.805908Z" fill="white"></path></mask><g mask="url(#mask2_4_393)"><path d="M6.29037 6.03148H0.597046V0.837402H18.2312V6.03148H12.5319L12.5349 21.2527H6.2933L6.29037 6.03148Z" fill="#E3E3E3"></path><path d="M28.8209 17.9476C28.8132 19.0579 28.8632 20.3121 29.4839 21.2553L23.7288 21.2213C23.5889 20.8222 23.5059 20.2228 23.5386 19.8249H23.4806C22.2773 21.1845 20.5368 21.5727 18.7123 21.5625C15.8638 21.5455 13.5074 20.1655 13.5239 17.0607C13.5519 12.3893 19.0221 12.5923 21.9017 12.0692C22.6718 11.9303 23.4419 11.7069 23.4472 10.7675C23.4534 9.77035 22.5164 9.39365 21.6048 9.38826C19.8669 9.37994 19.5183 10.26 19.4876 10.886L14.2448 10.8561C14.439 6.69883 18.3742 6.03742 21.8801 6.05732C28.9455 6.09879 28.8721 9.03258 28.8544 11.8804L28.8209 17.9476ZM23.4254 14.5828C22.74 14.9212 21.9686 15.1162 21.2 15.2821C19.9441 15.5608 19.2867 15.8694 19.2819 16.8652C19.2783 17.5499 20.0144 18.2377 21.0392 18.2439C22.321 18.2507 23.3225 17.4885 23.4178 15.9504L23.4254 14.5828ZM29.6515 0.805908H35.2922L35.2514 8.13072H35.3078C36.1692 6.88286 37.6834 6.15049 39.3651 6.15936C44.321 6.18873 45.636 10.4115 45.6156 13.8866C45.594 17.5887 43.547 21.7063 39.3597 21.6831C36.5959 21.6662 35.7474 20.6074 35.0402 19.6628H34.9836L34.9734 21.2533H29.6515V0.805908ZM37.5163 10.2511C35.4941 10.2395 35.0273 12.1453 35.017 13.8812C35.0068 15.6467 35.4518 17.5592 37.4735 17.571C39.4973 17.5811 39.964 15.6766 39.9744 13.9097C39.9846 12.1734 39.5396 10.2613 37.5163 10.2511ZM53.4648 16.3632C47.9085 16.3313 45.4224 12.642 45.4471 8.54095C45.4713 4.43884 47.9985 0.808879 53.5548 0.842283C59.1111 0.87297 61.5975 4.53294 61.5729 8.63492C61.5487 12.7354 59.0211 16.3954 53.4648 16.3632ZM53.5319 4.94286C51.394 4.92996 51.0968 7.00807 51.0874 8.57338C51.0789 10.1397 51.3511 12.2497 53.4881 12.2627C55.6243 12.2742 55.9228 10.1694 55.9321 8.60152C55.941 7.03486 55.6684 4.95441 53.5319 4.94286Z" fill="#E3E3E3"></path><path d="M67.465 16.3646C61.9099 16.3312 59.4239 12.6419 59.4485 8.54094C59.4715 4.44018 62 0.808867 67.5554 0.842271C73.1113 0.874316 75.5973 4.53416 75.5744 8.63491C75.5498 12.7368 73.0213 16.3958 67.465 16.3646ZM67.5316 4.94289C65.3955 4.92995 65.0983 7.00806 65.0893 8.57472C65.0792 10.141 65.3518 12.2498 67.4896 12.2627C69.6245 12.2756 69.9234 10.1694 69.9319 8.60286C69.9412 7.03608 69.6678 4.95444 67.5316 4.94289ZM76.182 0.842653H81.7035V21.2539H76.182V0.842653ZM97.4158 17.8965C97.4111 19.0072 97.3487 20.3109 97.9712 21.2539H92.3011C92.1622 20.8541 92.0667 20.1727 92.0985 19.7757L92.0412 19.7748C90.8375 21.134 89.0987 21.5236 87.2742 21.5132C84.4239 21.4951 82.0674 20.115 82.0861 17.0101C82.1141 12.3388 87.5817 12.5431 90.4626 12.0192C91.2324 11.8802 92.0039 11.6564 92.0089 10.7169C92.0153 9.71974 91.0782 9.34356 90.1653 9.33834C88.427 9.3293 88.0806 10.2095 88.0496 10.8348L82.8045 10.806C82.9998 6.64835 86.9363 5.98639 90.4405 6.00858C97.5062 6.04819 97.4328 8.9821 97.4158 11.83V17.8965ZM91.986 14.5342C91.3007 14.8707 90.5296 15.066 89.7615 15.2316C88.5035 15.5103 87.8487 15.8201 87.8424 16.8161C87.8385 17.4999 88.5752 18.1871 89.5998 18.1934C90.8829 18.2001 91.8841 17.4385 91.978 15.8998L91.986 14.5342Z" fill="#E3E3E3"></path><path d="M47.5623 16.3643C51.5679 18.1529 55.7243 18.9473 60.2535 18.973C65.0112 19.0011 68.619 18.1031 73.1864 16.3643L73.1597 21.2912C69.0716 23.3176 64.6388 24.4102 60.2213 24.3848C55.4072 24.3564 51.9373 23.368 47.533 21.2912L47.5623 16.3643Z" fill="#E3E3E3"></path></g></g></g></g><defs><clipPath id="clip0_4_393"><rect width="98" height="25" fill="white"></rect></clipPath></defs></svg>