<svg xmlns="http://www.w3.org/2000/svg" width="131" height="19" viewBox="0 0 131 19" fill="none"><g clip-path="url(#clip0_4_343)"><path d="M72.3963 8.60768C72.3772 8.62686 72.3529 8.63993 72.3264 8.64524C72.2999 8.65055 72.2724 8.64786 72.2475 8.6375C72.2225 8.62714 72.2012 8.60958 72.1863 8.58707C72.1713 8.56456 72.1634 8.53811 72.1635 8.51108L72.1592 0.493532C72.1592 0.475657 72.1556 0.457957 72.1488 0.441443C72.142 0.424929 72.1319 0.409924 72.1193 0.397284C72.1066 0.384645 72.0916 0.374619 72.0751 0.367779C72.0586 0.360938 72.0409 0.357417 72.023 0.357417L67.8474 0.353027C67.8113 0.353027 67.7767 0.367366 67.7512 0.392893C67.7256 0.418419 67.7113 0.453041 67.7113 0.48914L67.7245 18.6538C67.7245 18.6899 67.7388 18.7245 67.7643 18.75C67.7899 18.7755 67.8245 18.7899 67.8606 18.7899L72.0713 18.7987C72.1074 18.7987 72.1421 18.7843 72.1676 18.7588C72.1931 18.7333 72.2075 18.6986 72.2075 18.6625L72.2031 14.0127C72.203 13.9948 72.2064 13.9771 72.2132 13.9605C72.22 13.9439 72.23 13.9288 72.2426 13.9161L73.3403 12.8272C73.3546 12.8128 73.372 12.8018 73.3911 12.795C73.4103 12.7881 73.4307 12.7857 73.4509 12.7878C73.4711 12.7899 73.4906 12.7965 73.5079 12.8071C73.5253 12.8177 73.54 12.8321 73.551 12.8492L77.5027 18.7328C77.5151 18.7517 77.5321 18.7673 77.552 18.778C77.572 18.7887 77.5942 18.7943 77.6169 18.7943L82.1745 18.7987C82.1998 18.7993 82.2248 18.7929 82.2466 18.7801C82.2684 18.7673 82.2863 18.7487 82.2981 18.7264C82.31 18.704 82.3154 18.6788 82.3137 18.6536C82.312 18.6284 82.3034 18.6041 82.2887 18.5835L76.3567 10.0961C76.3383 10.0696 76.33 10.0373 76.3332 10.0051C76.3364 9.97292 76.351 9.94294 76.3743 9.92052L81.5027 4.91943C81.5216 4.90066 81.5346 4.87674 81.5401 4.85065C81.5456 4.82455 81.5432 4.79743 81.5334 4.77264C81.5236 4.74786 81.5067 4.72651 81.4849 4.71123C81.463 4.69596 81.4372 4.68743 81.4105 4.68672H76.5016C76.4837 4.68663 76.466 4.69007 76.4494 4.69685C76.4328 4.70363 76.4177 4.71362 76.405 4.72624L72.3963 8.60768Z" stroke="#191919" stroke-width="0.878154"></path><path d="M4.86656 4.33086C4.88674 4.33086 4.90672 4.33483 4.92537 4.34256C4.94401 4.35028 4.96096 4.3616 4.97523 4.37587C4.9895 4.39014 5.00082 4.40708 5.00854 4.42573C5.01626 4.44437 5.02024 4.46436 5.02024 4.48454L5.01585 18.6404C5.01585 18.6811 5.03204 18.7202 5.06086 18.7491C5.08968 18.7779 5.12877 18.7941 5.16952 18.7941L9.28807 18.7897C9.32882 18.7897 9.36791 18.7735 9.39673 18.7447C9.42555 18.7158 9.44174 18.6768 9.44174 18.636L9.42418 4.49332C9.42418 4.45256 9.44037 4.41347 9.46919 4.38465C9.49801 4.35583 9.5371 4.33964 9.57786 4.33964L12.9544 4.30891C12.9878 4.30934 13.0205 4.29886 13.0474 4.27905C13.0744 4.25924 13.0941 4.23119 13.1036 4.19914L14.2057 0.594314C14.2125 0.571568 14.2139 0.547559 14.2099 0.52417C14.2058 0.500782 14.1964 0.47865 14.1824 0.459509C14.1684 0.440368 14.1501 0.424737 14.129 0.413845C14.1079 0.402953 14.0846 0.397095 14.0608 0.396729H0.734843C0.714662 0.396729 0.694678 0.400703 0.676033 0.408426C0.657388 0.416149 0.640447 0.427469 0.626177 0.441739C0.611906 0.45601 0.600587 0.472951 0.592864 0.491596C0.585141 0.510241 0.581166 0.530224 0.581166 0.550405L0.567993 4.1684C0.567993 4.20916 0.584184 4.24825 0.613004 4.27707C0.641824 4.30589 0.680913 4.32208 0.72167 4.32208L4.86656 4.33086Z" stroke="#191919" stroke-width="0.878154"></path><path d="M19.5188 2.62286C19.5188 2.03595 19.2856 1.47308 18.8706 1.05807C18.4556 0.643063 17.8928 0.409912 17.3058 0.409912C16.7189 0.409912 16.1561 0.643063 15.7411 1.05807C15.326 1.47308 15.0929 2.03595 15.0929 2.62286C15.0929 3.20977 15.326 3.77265 15.7411 4.18765C16.1561 4.60266 16.7189 4.83581 17.3058 4.83581C17.8928 4.83581 18.4556 4.60266 18.8706 4.18765C19.2856 3.77265 19.5188 3.20977 19.5188 2.62286Z" stroke="#191919" stroke-width="0.878154"></path><path d="M25.8504 8.62963C25.8317 8.64795 25.808 8.66029 25.7823 8.66508C25.7565 8.66987 25.73 8.6669 25.706 8.65654C25.6819 8.64618 25.6616 8.6289 25.6474 8.6069C25.6332 8.5849 25.6259 8.55919 25.6264 8.53303V0.493532C25.6264 0.458597 25.6126 0.425093 25.5879 0.40039C25.5632 0.375687 25.5297 0.361807 25.4947 0.361807L21.3059 0.353027C21.2886 0.353027 21.2715 0.356434 21.2555 0.363054C21.2395 0.369673 21.225 0.379376 21.2128 0.391608C21.2005 0.40384 21.1908 0.41836 21.1842 0.434341C21.1776 0.450322 21.1742 0.467452 21.1742 0.48475L21.2269 18.6669C21.2269 18.7019 21.2408 18.7354 21.2655 18.7601C21.2902 18.7848 21.3237 18.7987 21.3586 18.7987L25.5342 18.7943C25.5515 18.7943 25.5687 18.7909 25.5846 18.7842C25.6006 18.7776 25.6151 18.7679 25.6274 18.7557C25.6396 18.7435 25.6493 18.7289 25.6559 18.713C25.6625 18.697 25.666 18.6798 25.666 18.6625L25.6572 14.0171C25.6568 13.9992 25.6602 13.9813 25.667 13.9647C25.6738 13.9481 25.6839 13.9331 25.6967 13.9205L26.8251 12.8272C26.839 12.8137 26.8557 12.8034 26.8741 12.797C26.8925 12.7907 26.912 12.7885 26.9313 12.7906C26.9506 12.7927 26.9692 12.799 26.9857 12.8092C27.0023 12.8193 27.0164 12.8329 27.0271 12.8492L30.9656 18.724C30.9778 18.7418 30.9942 18.7563 31.0134 18.7662C31.0325 18.7762 31.0538 18.7813 31.0754 18.7811L35.6286 18.7635C35.6524 18.763 35.6755 18.756 35.6956 18.7434C35.7157 18.7307 35.732 18.7129 35.7428 18.6918C35.7536 18.6706 35.7585 18.6469 35.7569 18.6232C35.7554 18.5996 35.7475 18.5767 35.734 18.5572L29.8284 10.0874C29.8098 10.062 29.8008 10.0307 29.8032 9.99931C29.8057 9.96789 29.8193 9.93838 29.8416 9.91613L34.97 4.91504C34.9881 4.89663 35.0003 4.87332 35.0052 4.84801C35.0102 4.82271 35.0076 4.79651 34.9977 4.77267C34.9879 4.74882 34.9713 4.72839 34.95 4.71389C34.9287 4.69939 34.9036 4.69147 34.8778 4.69111L29.9733 4.68672C29.9392 4.68604 29.9061 4.69863 29.8811 4.72184L25.8504 8.62963Z" stroke="#191919" stroke-width="0.878154"></path><path d="M41.0467 4.33086C41.0944 4.33086 41.1402 4.34983 41.174 4.38359C41.2077 4.41735 41.2267 4.46314 41.2267 4.51088V18.6448C41.2267 18.6925 41.2457 18.7383 41.2794 18.7721C41.3132 18.8058 41.359 18.8248 41.4067 18.8248L45.477 18.8204C45.5247 18.8204 45.5705 18.8014 45.6043 18.7677C45.638 18.7339 45.657 18.6881 45.657 18.6404V4.50649C45.657 4.45875 45.676 4.41296 45.7097 4.3792C45.7435 4.34544 45.7893 4.32647 45.837 4.32647H49.3584C49.3955 4.32567 49.4314 4.31343 49.4613 4.29142C49.4912 4.26941 49.5135 4.23871 49.5253 4.20353L50.7327 0.633831C50.7418 0.606725 50.7443 0.577849 50.74 0.549595C50.7356 0.521341 50.7247 0.49452 50.7079 0.47135C50.6912 0.44818 50.6692 0.429325 50.6437 0.41635C50.6183 0.403374 50.5901 0.396649 50.5615 0.396729H36.8711C36.8233 0.396729 36.7775 0.415696 36.7438 0.449457C36.71 0.483217 36.691 0.529006 36.691 0.576751L36.6866 4.14645C36.6866 4.19419 36.7056 4.23998 36.7394 4.27374C36.7731 4.3075 36.8189 4.32647 36.8667 4.32647L41.0467 4.33086Z" stroke="#191919" stroke-width="0.878154"></path><path d="M115.755 8.66912C114.274 7.50995 112.642 7.20406 110.86 7.75145C108.19 8.56813 106.888 10.4488 106.952 13.3936C106.999 15.6182 107.922 17.196 109.723 18.1268C111.895 19.2538 113.96 19.0782 115.918 17.5999C116.067 17.4858 116.139 17.5224 116.133 17.7097L116.107 18.4298C116.101 18.6142 116.192 18.7064 116.379 18.7064L118.346 18.702C118.56 18.702 118.667 18.5937 118.667 18.3771V3.58021C118.667 3.54644 118.654 3.51405 118.631 3.49018C118.607 3.4663 118.576 3.45288 118.544 3.45288H116.089C116.036 3.45288 116.01 3.47923 116.01 3.53191V8.54179C116.01 8.7584 115.925 8.80084 115.755 8.66912Z" stroke="#191919" stroke-width="0.878154"></path><path d="M56.1856 3.89618C55.1025 3.86984 54.3722 3.93716 53.9946 4.09816C49.3755 6.05205 47.5533 10.9082 50.0605 15.2375C51.3221 17.4183 53.3857 18.5892 56.2515 18.7502" stroke="#797979" stroke-width="0.878154"></path><path d="M56.2517 18.7502L59.1013 18.7546" stroke="#191919" stroke-width="0.878154"></path><path d="M59.1014 18.7546C62.1164 18.6639 64.2694 17.3101 65.5603 14.6932C66.7399 12.2958 66.7107 9.96283 65.4725 7.69426C64.1201 5.2208 62.0886 3.95772 59.3781 3.90503" stroke="#515151" stroke-width="0.878154"></path><path d="M59.3778 3.90527L56.1857 3.89648" stroke="#191919" stroke-width="0.878154"></path><path d="M59.3781 3.90503C61.6378 4.61633 63.258 5.88088 64.2386 7.69866C66.2628 11.4484 64.9148 15.6767 61.2529 17.8545C60.6616 18.2058 59.9445 18.5058 59.1014 18.7546" stroke="#515151" stroke-width="0.878154"></path><path d="M56.2521 18.7505C53.9659 18.0977 52.2901 16.8785 51.2246 15.093C50.1942 13.363 49.9191 11.4764 50.3992 9.43325C51.0519 6.66121 52.9809 4.81562 56.1862 3.89648" stroke="#797979" stroke-width="0.878154"></path><path d="M94.8904 15.4267C94.9052 15.3925 94.9297 15.3633 94.961 15.343C94.9922 15.3227 95.0288 15.3121 95.0661 15.3125H102.012C102.05 15.3125 102.087 15.3237 102.118 15.3448C102.15 15.366 102.174 15.396 102.188 15.4311L103.466 18.5749C103.48 18.6091 103.505 18.6382 103.536 18.6585C103.567 18.6789 103.604 18.6895 103.641 18.689L106.122 18.7198C106.154 18.7197 106.185 18.7117 106.213 18.6965C106.24 18.6813 106.264 18.6593 106.281 18.6327C106.298 18.606 106.308 18.5755 106.31 18.5439C106.312 18.5123 106.307 18.4807 106.293 18.4519L99.9223 4.34439C99.9072 4.31165 99.883 4.28392 99.8527 4.26447C99.8223 4.24502 99.7871 4.23466 99.751 4.23462L97.3141 4.23022C97.2781 4.23027 97.2428 4.24063 97.2125 4.26008C97.1821 4.27953 97.158 4.30726 97.1429 4.33999L90.807 18.4256C90.7938 18.4543 90.7879 18.486 90.7901 18.5175C90.7923 18.5491 90.8024 18.5797 90.8194 18.6063C90.8365 18.633 90.8599 18.655 90.8877 18.6702C90.9155 18.6854 90.9466 18.6934 90.9783 18.6934L93.3756 18.711C93.4129 18.7114 93.4495 18.7008 93.4807 18.6805C93.512 18.6602 93.5365 18.6311 93.5512 18.5968L94.8904 15.4267Z" stroke="#191919" stroke-width="0.878154"></path><path d="M19.5083 6.39511C19.5083 6.37377 19.5041 6.35264 19.4959 6.33294C19.4877 6.31324 19.4757 6.29535 19.4605 6.28029C19.4454 6.26523 19.4275 6.25329 19.4078 6.24516C19.388 6.23703 19.3669 6.23287 19.3456 6.23291L15.2797 6.24002C15.2366 6.24011 15.1953 6.25729 15.1649 6.28781C15.1345 6.31832 15.1175 6.35967 15.1176 6.40275L15.1389 18.6354C15.1389 18.6568 15.1432 18.6779 15.1514 18.6976C15.1596 18.7173 15.1716 18.7352 15.1867 18.7502C15.2018 18.7653 15.2197 18.7772 15.2395 18.7854C15.2592 18.7935 15.2803 18.7977 15.3017 18.7976L19.3675 18.7905C19.4106 18.7904 19.4519 18.7733 19.4823 18.7427C19.5127 18.7122 19.5297 18.6709 19.5297 18.6278L19.5083 6.39511Z" stroke="#191919" stroke-width="0.878154"></path><path d="M127.664 16.0762C126.561 17.3759 123.339 16.4758 122.127 15.7776C121.872 15.6283 121.679 15.6854 121.547 15.9489L120.88 17.288C120.751 17.5486 120.818 17.7374 121.082 17.8545C123.462 18.9229 125.77 19.1117 128.006 18.4209C130.684 17.5954 131.567 14.0872 128.695 12.8226C127.87 12.4597 127.023 12.2518 126.153 12.1991C125.375 12.1552 124.641 11.9357 123.953 11.5405C123.86 11.4868 123.779 11.4135 123.717 11.3258C123.654 11.2381 123.611 11.1379 123.591 11.0321C123.57 10.9263 123.573 10.8173 123.598 10.7126C123.624 10.6079 123.672 10.5099 123.738 10.4253C124.072 9.9979 124.534 9.75641 125.126 9.7008C126.633 9.55736 127.915 9.80325 128.972 10.4384C129.045 10.4824 129.102 10.4648 129.143 10.3858L130.035 8.55919C130.043 8.54223 130.047 8.52382 130.048 8.50505C130.049 8.48629 130.046 8.46756 130.039 8.44996C130.033 8.43235 130.023 8.41624 130.01 8.40258C129.997 8.38891 129.982 8.37797 129.964 8.37039C127.748 7.42199 125.644 7.25367 123.65 7.86545C121.634 8.48309 120.804 9.80764 121.161 11.8391C121.341 12.8929 122.491 13.6525 123.453 13.8632C124.635 14.1238 125.869 14.3784 127.154 14.6272C127.306 14.6572 127.448 14.7264 127.565 14.8279C127.683 14.9295 127.771 15.0598 127.823 15.2062C127.874 15.3525 127.887 15.5098 127.859 15.6623C127.831 15.8149 127.764 15.9576 127.664 16.0762Z" stroke="#191919" stroke-width="0.878154"></path><path d="M112.707 16.6237C113.58 16.6497 114.428 16.3106 115.064 15.6812C115.701 15.0517 116.074 14.1835 116.101 13.2674C116.128 12.3514 115.807 11.4625 115.209 10.7965C114.611 10.1304 113.785 9.74165 112.912 9.71574C112.039 9.68983 111.191 10.0289 110.554 10.6583C109.918 11.2877 109.545 12.156 109.518 13.072C109.491 13.9881 109.811 14.8769 110.409 15.543C111.007 16.2091 111.834 16.5978 112.707 16.6237Z" stroke="#191919" stroke-width="0.878154"></path><path d="M61.2883 11.2816C61.2883 10.3185 60.9058 9.39491 60.2248 8.71394C59.5438 8.03296 58.6202 7.65039 57.6572 7.65039C56.6941 7.65039 55.7705 8.03296 55.0895 8.71394C54.4086 9.39491 54.026 10.3185 54.026 11.2816C54.026 12.2446 54.4086 13.1682 55.0895 13.8492C55.7705 14.5302 56.6941 14.9127 57.6572 14.9127C58.6202 14.9127 59.5438 14.5302 60.2248 13.8492C60.9058 13.1682 61.2883 12.2446 61.2883 11.2816Z" stroke="#191919" stroke-width="0.878154"></path><path d="M95.9309 13.0071C95.9199 13.0319 95.9153 13.059 95.9175 13.086C95.9197 13.1131 95.9286 13.1391 95.9435 13.1618C95.9583 13.1845 95.9786 13.2032 96.0025 13.216C96.0264 13.2289 96.0531 13.2355 96.0802 13.2354H100.954C100.981 13.2355 101.008 13.2289 101.032 13.216C101.056 13.2032 101.076 13.1845 101.091 13.1618C101.106 13.1391 101.115 13.1131 101.117 13.086C101.119 13.059 101.114 13.0319 101.103 13.0071L98.6664 7.30346C98.6539 7.27425 98.633 7.24937 98.6065 7.23188C98.58 7.2144 98.5489 7.20508 98.5171 7.20508C98.4853 7.20508 98.4542 7.2144 98.4277 7.23188C98.4012 7.24937 98.3804 7.27425 98.3678 7.30346L95.9309 13.0071Z" stroke="#191919" stroke-width="0.878154"></path><path d="M72.396 8.60792L76.4048 4.72648C76.4175 4.71386 76.4326 4.70388 76.4491 4.6971C76.4657 4.69031 76.4835 4.68687 76.5014 4.68696H81.4103C81.4369 4.68768 81.4628 4.6962 81.4846 4.71147C81.5065 4.72675 81.5234 4.7481 81.5332 4.77289C81.543 4.79767 81.5453 4.8248 81.5399 4.85089C81.5344 4.87698 81.5214 4.9009 81.5025 4.91967L76.3741 9.92076C76.3507 9.94318 76.3362 9.97316 76.3329 10.0053C76.3297 10.0375 76.3381 10.0698 76.3565 10.0964L82.2884 18.5838C82.3031 18.6043 82.3118 18.6286 82.3135 18.6539C82.3151 18.6791 82.3097 18.7043 82.2979 18.7266C82.286 18.749 82.2682 18.7676 82.2463 18.7803C82.2245 18.7931 82.1995 18.7995 82.1743 18.7989L77.6166 18.7945C77.594 18.7946 77.5717 18.789 77.5518 18.7782C77.5318 18.7675 77.5149 18.752 77.5025 18.733L73.5508 12.8494C73.5397 12.8324 73.525 12.818 73.5077 12.8074C73.4904 12.7968 73.4709 12.7901 73.4507 12.788C73.4304 12.7859 73.41 12.7884 73.3909 12.7952C73.3717 12.802 73.3544 12.813 73.34 12.8275L72.2423 13.9164C72.2297 13.9291 72.2197 13.9442 72.213 13.9607C72.2062 13.9773 72.2027 13.9951 72.2028 14.013L72.2072 18.6628C72.2072 18.6989 72.1929 18.7335 72.1673 18.759C72.1418 18.7846 72.1072 18.7989 72.0711 18.7989L67.8604 18.7901C67.8243 18.7901 67.7896 18.7758 67.7641 18.7503C67.7386 18.7247 67.7242 18.6901 67.7242 18.654L67.7111 0.489384C67.7111 0.453285 67.7254 0.418663 67.7509 0.393137C67.7765 0.367611 67.8111 0.353271 67.8472 0.353271L72.0228 0.357662C72.0407 0.357662 72.0584 0.361182 72.0749 0.368023C72.0914 0.374863 72.1064 0.384889 72.119 0.397529C72.1317 0.410168 72.1417 0.425173 72.1485 0.441687C72.1554 0.458201 72.1589 0.475901 72.1589 0.493776L72.1633 8.51133C72.1632 8.53835 72.1711 8.5648 72.186 8.58731C72.201 8.60983 72.2223 8.62738 72.2472 8.63774C72.2722 8.6481 72.2997 8.6508 72.3262 8.64549C72.3527 8.64018 72.377 8.6271 72.396 8.60792Z" fill="#E3E3E3"></path><path d="M4.86619 4.3311L0.721304 4.32232C0.680546 4.32232 0.641458 4.30613 0.612638 4.27731C0.583818 4.24849 0.567627 4.2094 0.567627 4.16865L0.5808 0.550649C0.5808 0.530468 0.584774 0.510485 0.592497 0.49184C0.60022 0.473195 0.61154 0.456254 0.62581 0.441983C0.640081 0.427713 0.657022 0.416393 0.675667 0.40867C0.694312 0.400947 0.714296 0.396973 0.734477 0.396973H14.0605C14.0842 0.397339 14.1075 0.403197 14.1286 0.414089C14.1497 0.424981 14.168 0.440612 14.182 0.459753C14.1961 0.478894 14.2055 0.501026 14.2095 0.524414C14.2136 0.547803 14.2122 0.571812 14.2054 0.594558L13.1033 4.19938C13.0937 4.23143 13.074 4.25949 13.047 4.2793C13.0201 4.29911 12.9874 4.30959 12.954 4.30915L9.57749 4.33989C9.53674 4.33989 9.49765 4.35608 9.46883 4.3849C9.44001 4.41372 9.42381 4.45281 9.42381 4.49356L9.44138 18.6362C9.44138 18.677 9.42519 18.7161 9.39637 18.7449C9.36755 18.7737 9.32846 18.7899 9.2877 18.7899L5.16916 18.7943C5.1284 18.7943 5.08931 18.7781 5.06049 18.7493C5.03167 18.7205 5.01548 18.6814 5.01548 18.6406L5.01987 4.48478C5.01987 4.4646 5.0159 4.44462 5.00817 4.42597C5.00045 4.40733 4.98913 4.39039 4.97486 4.37612C4.96059 4.36184 4.94365 4.35053 4.925 4.3428C4.90636 4.33508 4.88637 4.3311 4.86619 4.3311Z" fill="#E3E3E3"></path><path d="M17.3056 4.83606C18.5278 4.83606 19.5186 3.84528 19.5186 2.62311C19.5186 1.40093 18.5278 0.410156 17.3056 0.410156C16.0834 0.410156 15.0927 1.40093 15.0927 2.62311C15.0927 3.84528 16.0834 4.83606 17.3056 4.83606Z" fill="#E3E3E3"></path><path d="M25.8502 8.62988L29.881 4.72209C29.906 4.69888 29.9391 4.68628 29.9732 4.68696L34.8777 4.69135C34.9035 4.69172 34.9286 4.69964 34.9499 4.71413C34.9712 4.72863 34.9878 4.74907 34.9976 4.77291C35.0074 4.79675 35.01 4.82295 35.0051 4.84826C35.0002 4.87357 34.9879 4.89687 34.9699 4.91528L29.8415 9.91637C29.8191 9.93862 29.8055 9.96813 29.8031 9.99955C29.8007 10.031 29.8096 10.0622 29.8283 10.0876L35.7339 18.5574C35.7473 18.577 35.7553 18.5998 35.7568 18.6235C35.7584 18.6472 35.7535 18.6709 35.7427 18.692C35.7319 18.7131 35.7156 18.731 35.6955 18.7436C35.6754 18.7562 35.6522 18.7632 35.6285 18.7638L31.0753 18.7813C31.0537 18.7815 31.0324 18.7764 31.0133 18.7665C30.9941 18.7565 30.9777 18.742 30.9655 18.7243L27.027 12.8494C27.0163 12.8332 27.0022 12.8195 26.9856 12.8094C26.9691 12.7993 26.9505 12.7929 26.9312 12.7908C26.9119 12.7887 26.8923 12.7909 26.874 12.7973C26.8556 12.8036 26.8389 12.8139 26.825 12.8275L25.6966 13.9208C25.6837 13.9333 25.6736 13.9484 25.6668 13.965C25.66 13.9816 25.6567 13.9994 25.6571 14.0174L25.6658 18.6628C25.6658 18.6801 25.6624 18.6972 25.6558 18.7132C25.6492 18.7292 25.6395 18.7437 25.6273 18.7559C25.615 18.7682 25.6005 18.7779 25.5845 18.7845C25.5685 18.7911 25.5514 18.7945 25.5341 18.7945L21.3585 18.7989C21.3236 18.7989 21.29 18.785 21.2653 18.7603C21.2406 18.7356 21.2268 18.7021 21.2268 18.6672L21.1741 0.484994C21.1741 0.467696 21.1775 0.450567 21.1841 0.434585C21.1907 0.418604 21.2004 0.404084 21.2127 0.391852C21.2249 0.379621 21.2394 0.369917 21.2554 0.363298C21.2714 0.356678 21.2885 0.353271 21.3058 0.353271L25.4946 0.362052C25.5295 0.362052 25.563 0.375931 25.5877 0.400634C25.6124 0.425337 25.6263 0.458841 25.6263 0.493776V8.53328C25.6258 8.55943 25.6331 8.58515 25.6473 8.60714C25.6614 8.62914 25.6818 8.64642 25.7058 8.65678C25.7299 8.66714 25.7564 8.67012 25.7821 8.66533C25.8079 8.66053 25.8316 8.64819 25.8502 8.62988Z" fill="#E3E3E3"></path><path d="M41.0464 4.33111L36.8664 4.32672C36.8187 4.32672 36.7729 4.30775 36.7391 4.27399C36.7054 4.24023 36.6864 4.19444 36.6864 4.14669L36.6908 0.576995C36.6908 0.52925 36.7098 0.483461 36.7435 0.449701C36.7773 0.41594 36.8231 0.396973 36.8708 0.396973H50.5612C50.5898 0.396893 50.618 0.403618 50.6435 0.416594C50.6689 0.42957 50.691 0.448424 50.7077 0.471594C50.7244 0.494764 50.7354 0.521585 50.7397 0.549839C50.744 0.578093 50.7415 0.606969 50.7325 0.634075L49.525 4.20377C49.5133 4.23896 49.4909 4.26966 49.4611 4.29166C49.4312 4.31367 49.3953 4.32591 49.3582 4.32672H45.8368C45.789 4.32672 45.7432 4.34568 45.7095 4.37944C45.6757 4.4132 45.6567 4.45899 45.6567 4.50674V18.6406C45.6567 18.6884 45.6378 18.7342 45.604 18.7679C45.5703 18.8017 45.5245 18.8207 45.4767 18.8207L41.4065 18.825C41.3587 18.825 41.3129 18.8061 41.2792 18.7723C41.2454 18.7386 41.2265 18.6928 41.2265 18.645V4.51113C41.2265 4.46338 41.2075 4.41759 41.1737 4.38383C41.14 4.35007 41.0942 4.33111 41.0464 4.33111Z" fill="#E3E3E3"></path><path d="M116.01 8.54203V3.53216C116.01 3.47947 116.036 3.45312 116.089 3.45312H118.543C118.576 3.45313 118.607 3.46654 118.63 3.49042C118.653 3.5143 118.666 3.54669 118.666 3.58046V18.3774C118.666 18.594 118.56 18.7023 118.346 18.7023L116.379 18.7067C116.192 18.7067 116.101 18.6145 116.107 18.43L116.133 17.71C116.139 17.5226 116.067 17.486 115.918 17.6002C113.96 19.0784 111.894 19.254 109.722 18.1271C107.922 17.1962 106.999 15.6185 106.952 13.3938C106.887 10.4491 108.19 8.56837 110.86 7.75169C112.642 7.20431 114.274 7.5102 115.755 8.66936C115.925 8.80108 116.01 8.75864 116.01 8.54203ZM112.707 16.6239C113.58 16.6498 114.428 16.3108 115.064 15.6813C115.701 15.0519 116.074 14.1837 116.101 13.2676C116.128 12.3515 115.807 11.4627 115.209 10.7966C114.611 10.1306 113.785 9.74182 112.912 9.7159C112.039 9.68999 111.191 10.029 110.554 10.6585C109.918 11.2879 109.545 12.1561 109.518 13.0722C109.49 13.9883 109.811 14.8771 110.409 15.5432C111.007 16.2092 111.834 16.598 112.707 16.6239Z" fill="#E3E3E3"></path><path d="M59.3782 3.90551C61.6379 4.61682 63.2581 5.88136 64.2387 7.69914C66.2629 11.4489 64.9149 15.6772 61.253 17.855C60.6617 18.2063 59.9446 18.5063 59.1015 18.7551L56.2519 18.7507C53.9658 18.098 52.29 16.8788 51.2245 15.0932C50.1941 13.3632 49.919 11.4767 50.399 9.43349C51.0518 6.66145 52.9808 4.81586 56.1861 3.89673L59.3782 3.90551ZM61.2881 11.282C61.2881 10.319 60.9056 9.39536 60.2246 8.71438C59.5436 8.03341 58.62 7.65084 57.657 7.65084C56.6939 7.65084 55.7703 8.03341 55.0894 8.71438C54.4084 9.39536 54.0258 10.319 54.0258 11.282C54.0258 12.2451 54.4084 13.1687 55.0894 13.8496C55.7703 14.5306 56.6939 14.9132 57.657 14.9132C58.62 14.9132 59.5436 14.5306 60.2246 13.8496C60.9056 13.1687 61.2881 12.2451 61.2881 11.282Z" fill="#E3E3E3"></path><path d="M56.1854 3.89643C52.9801 4.81556 51.0511 6.66115 50.3983 9.43319C49.9183 11.4764 50.1934 13.3629 51.2238 15.0929C52.2893 16.8785 53.9651 18.0976 56.2512 18.7504C53.3855 18.5894 51.3218 17.4185 50.0602 15.2378C47.5531 10.9085 49.3753 6.0523 53.9944 4.0984C54.372 3.93741 55.1023 3.87008 56.1854 3.89643Z" fill="#797979"></path><path d="M59.1012 18.7549C59.9442 18.5061 60.6614 18.206 61.2527 17.8548C64.9146 15.6769 66.2626 11.4486 64.2384 7.6989C63.2578 5.88112 61.6376 4.61658 59.3778 3.90527C62.0884 3.95796 64.1199 5.22104 65.4722 7.69451C66.7104 9.96307 66.7397 12.296 65.56 14.6934C64.2691 17.3103 62.1162 18.6641 59.1012 18.7549Z" fill="#515151"></path><path d="M94.8902 15.4269L93.551 18.5971C93.5363 18.6313 93.5117 18.6604 93.4805 18.6807C93.4492 18.7011 93.4126 18.7117 93.3754 18.7112L90.978 18.6937C90.9464 18.6936 90.9152 18.6856 90.8875 18.6704C90.8597 18.6552 90.8362 18.6332 90.8192 18.6066C90.8021 18.5799 90.792 18.5494 90.7899 18.5178C90.7877 18.4862 90.7935 18.4546 90.8068 18.4258L97.1426 4.34024C97.1577 4.3075 97.1819 4.27977 97.2122 4.26032C97.2426 4.24087 97.2778 4.23051 97.3139 4.23047L99.7508 4.23486C99.7868 4.2349 99.8221 4.24526 99.8524 4.26471C99.8828 4.28416 99.9069 4.3119 99.922 4.34463L106.293 18.4522C106.306 18.4809 106.312 18.5125 106.31 18.5441C106.308 18.5757 106.298 18.6062 106.281 18.6329C106.264 18.6596 106.24 18.6815 106.212 18.6968C106.185 18.712 106.153 18.72 106.122 18.72L103.641 18.6893C103.604 18.6897 103.567 18.6791 103.536 18.6588C103.505 18.6385 103.48 18.6094 103.465 18.5751L102.188 15.4313C102.174 15.3963 102.149 15.3662 102.118 15.3451C102.087 15.324 102.05 15.3127 102.012 15.3128H95.0658C95.0285 15.3123 94.992 15.3229 94.9607 15.3433C94.9295 15.3636 94.9049 15.3927 94.8902 15.4269ZM95.9308 13.0076C95.9198 13.0324 95.9152 13.0596 95.9174 13.0866C95.9196 13.1136 95.9285 13.1397 95.9433 13.1624C95.9582 13.1851 95.9785 13.2037 96.0024 13.2166C96.0262 13.2294 96.053 13.2361 96.0801 13.2359H100.954C100.981 13.2361 101.008 13.2294 101.032 13.2166C101.055 13.2037 101.076 13.1851 101.091 13.1624C101.105 13.1397 101.114 13.1136 101.117 13.0866C101.119 13.0596 101.114 13.0324 101.103 13.0076L98.6662 7.30401C98.6537 7.27481 98.6329 7.24992 98.6064 7.23244C98.5798 7.21495 98.5487 7.20563 98.517 7.20563C98.4852 7.20563 98.4541 7.21495 98.4276 7.23244C98.401 7.24992 98.3802 7.27481 98.3677 7.30401L95.9308 13.0076Z" fill="#E3E3E3"></path><path d="M19.3448 6.23334L15.2789 6.24044C15.1892 6.2406 15.1166 6.31346 15.1167 6.40318L15.1381 18.6359C15.1382 18.7256 15.2111 18.7982 15.3008 18.798L19.3667 18.7909C19.4564 18.7908 19.529 18.7179 19.5289 18.6282L19.5075 6.39552C19.5073 6.30579 19.4345 6.23319 19.3448 6.23334Z" fill="#E3E3E3"></path><path d="M127.663 16.0764C127.763 15.9578 127.831 15.8152 127.859 15.6626C127.886 15.51 127.874 15.3528 127.823 15.2064C127.771 15.0601 127.682 14.9297 127.565 14.8282C127.448 14.7266 127.306 14.6575 127.154 14.6275C125.869 14.3787 124.635 14.124 123.453 13.8635C122.491 13.6527 121.341 12.8931 121.161 11.8393C120.803 9.80788 121.633 8.48333 123.65 7.8657C125.644 7.25392 127.748 7.42223 129.964 8.37064C129.981 8.37821 129.997 8.38916 130.01 8.40282C130.023 8.41649 130.033 8.4326 130.039 8.4502C130.046 8.4678 130.049 8.48654 130.048 8.5053C130.047 8.52406 130.042 8.54247 130.034 8.55944L129.143 10.386C129.102 10.465 129.045 10.4826 128.972 10.4387C127.915 9.80349 126.633 9.55761 125.125 9.70104C124.534 9.75666 124.072 9.99815 123.738 10.4255C123.671 10.5102 123.624 10.6082 123.598 10.7129C123.573 10.8176 123.57 10.9265 123.591 11.0323C123.611 11.1381 123.654 11.2383 123.716 11.326C123.779 11.4138 123.86 11.487 123.953 11.5408C124.641 11.9359 125.374 12.1555 126.153 12.1994C127.022 12.2521 127.87 12.4599 128.695 12.8229C131.567 14.0874 130.684 17.5956 128.006 18.4211C125.769 19.1119 123.461 18.9231 121.082 17.8547C120.818 17.7376 120.751 17.5488 120.88 17.2883L121.547 15.9491C121.679 15.6857 121.872 15.6286 122.127 15.7779C123.338 16.476 126.561 17.3761 127.663 16.0764Z" fill="#E3E3E3"></path></g><defs><clipPath id="clip0_4_343"><rect width="131" height="19" fill="white"></rect></clipPath></defs></svg>