<svg xmlns="http://www.w3.org/2000/svg" width="149" height="27" viewBox="0 0 149 27" fill="none"><mask id="mask0_4_302" style="mask-type:luminance" maskUnits="userSpaceOnUse" x="0" y="0" width="149" height="27"><path d="M148.699 0.578125H0V26.633H148.699V0.578125Z" fill="white"></path></mask><g mask="url(#mask0_4_302)"><path fill-rule="evenodd" clip-rule="evenodd" d="M111.815 21.3032L117.54 6.16895H119.745L125.469 21.3032H123.307L121.844 17.2026H115.462L113.978 21.3032H111.815ZM116.119 15.3848H121.165L118.684 8.55744H118.6L116.119 15.3848ZM130.939 21.6414C129.596 21.6414 128.437 21.1129 127.462 20.0561C126.487 18.9992 125.999 17.6887 125.999 16.1245C125.999 14.5604 126.487 13.2499 127.462 12.1931C128.437 11.1362 129.596 10.6077 130.939 10.6077C131.731 10.6077 132.442 10.7768 133.071 11.115C133.699 11.4532 134.169 11.876 134.48 12.3833H134.565L134.48 10.9459V6.16895H136.43V21.3032H134.565V19.8658H134.48C134.169 20.3731 133.699 20.7959 133.07 21.1341C132.44 21.4723 131.731 21.6414 130.939 21.6414ZM131.257 19.8658C132.176 19.8658 132.957 19.5276 133.601 18.8512C134.244 18.1749 134.565 17.266 134.565 16.1245C134.565 14.9831 134.243 14.0743 133.601 13.3979C132.958 12.7215 132.176 12.3833 131.257 12.3833C130.353 12.3833 129.575 12.7252 128.925 13.408C128.275 14.0908 127.95 14.9979 127.95 16.1245C127.95 17.2513 128.275 18.1574 128.925 18.8402C129.575 19.5231 130.353 19.8658 131.257 19.8658ZM142.558 21.6414C141.399 21.6414 140.441 21.3592 139.686 20.7959C138.93 20.2325 138.374 19.5276 138.021 18.6821L139.759 17.9635C140.31 19.2593 141.251 19.9081 142.579 19.9081C143.188 19.9081 143.685 19.774 144.074 19.5065C144.461 19.2391 144.657 18.8862 144.657 18.4497C144.657 17.7733 144.183 17.3156 143.236 17.0757L141.137 16.5685C140.474 16.3994 139.844 16.0786 139.251 15.6063C138.657 15.1339 138.36 14.497 138.36 13.6938C138.36 12.7775 138.765 12.0341 139.579 11.4633C140.393 10.8927 141.357 10.6077 142.473 10.6077C143.392 10.6077 144.212 10.8155 144.932 11.2309C145.654 11.6462 146.17 12.2418 146.48 13.0174L144.784 13.7149C144.402 12.7987 143.61 12.341 142.41 12.341C141.83 12.341 141.342 12.4605 140.947 12.7004C140.551 12.9402 140.353 13.2637 140.353 13.6727C140.353 14.2645 140.812 14.6661 141.731 14.8775L143.788 15.3636C144.763 15.5888 145.484 15.9766 145.95 16.5262C146.417 17.0757 146.65 17.6961 146.65 18.3862C146.65 19.3163 146.268 20.091 145.505 20.7113C144.742 21.3317 143.759 21.6414 142.558 21.6414Z" fill="#E3E3E3"></path><path d="M46.3045 21.4603C41.6034 21.4603 37.5474 17.6004 37.5474 12.9135C37.5474 8.22652 41.5112 4.3667 46.3045 4.3667C48.886 4.3667 50.8216 5.3776 52.2043 6.75613L50.5452 8.41036C49.5311 7.49133 48.1484 6.75613 46.3045 6.75613C42.8939 6.75613 40.1285 9.51313 40.1285 13.0054C40.1285 16.4976 42.8017 19.2546 46.3045 19.2546C48.517 19.2546 49.8075 18.3356 50.6373 17.5085C51.2823 16.8652 51.7435 15.8543 51.9278 14.5677H46.3045V12.2702H54.2325C54.3246 12.7297 54.3246 13.1892 54.3246 13.7406C54.3246 15.4867 53.8639 17.6923 52.2964 19.2546C50.7294 20.6332 48.7934 21.4603 46.3045 21.4603ZM66.4927 15.9462C66.4927 19.1627 64.0038 21.4603 61.0537 21.4603C58.0119 21.4603 55.6151 19.1627 55.6151 15.9462C55.6151 12.7297 58.104 10.4322 61.0537 10.4322C64.096 10.4322 66.4927 12.8216 66.4927 15.9462ZM64.096 15.9462C64.096 13.9244 62.7133 12.6378 61.0537 12.6378C59.3946 12.6378 58.0119 14.0163 58.0119 15.9462C58.0119 17.8761 59.3946 19.2546 61.0537 19.2546C62.7133 19.3466 64.096 17.968 64.096 15.9462ZM78.753 15.9462C78.753 19.1627 76.2641 21.4603 73.314 21.4603C70.2722 21.4603 67.8754 19.1627 67.8754 15.9462C67.8754 12.7297 70.3643 10.4322 73.314 10.4322C76.2641 10.4322 78.753 12.8216 78.753 15.9462ZM76.3562 15.9462C76.3562 13.9244 74.9736 12.6378 73.314 12.6378C71.6549 12.6378 70.2722 14.0163 70.2722 15.9462C70.2722 17.8761 71.6549 19.2546 73.314 19.2546C74.8814 19.3466 76.3562 17.968 76.3562 15.9462ZM90.6447 10.7997V20.725C90.6447 24.7687 88.2479 26.5148 85.39 26.5148C82.7168 26.5148 81.0576 24.6768 80.5043 23.2983L82.6246 22.3793C82.9932 23.2983 83.9151 24.3092 85.39 24.3092C87.2338 24.3092 88.3401 23.2064 88.3401 21.0927V20.2655H88.2479C87.6946 20.9089 86.6805 21.5521 85.2978 21.5521C82.5325 21.5521 80.0435 19.1627 80.0435 16.0381C80.0435 12.9135 82.6246 10.5241 85.2978 10.5241C86.5883 10.5241 87.6946 11.0754 88.2479 11.7188H88.3401V10.7997H90.6447ZM88.5244 16.0381C88.5244 14.1082 87.2338 12.6378 85.5743 12.6378C83.9151 12.6378 82.5325 14.0163 82.5325 16.0381C82.5325 17.968 83.9151 19.3466 85.5743 19.3466C87.2338 19.3466 88.5244 17.8761 88.5244 16.0381ZM94.8849 4.91811V21.0927H92.4881V4.91811H94.8849ZM104.472 17.7842L106.315 19.0708C105.67 19.9898 104.288 21.5521 101.707 21.5521C98.5722 21.5521 96.2676 19.1627 96.2676 16.0381C96.2676 12.7297 98.5722 10.5241 101.43 10.5241C104.288 10.5241 105.67 12.8216 106.131 14.0163L106.408 14.6596L99.0329 17.6923C99.5863 18.7951 100.508 19.3466 101.707 19.3466C102.905 19.3466 103.826 18.7032 104.472 17.7842ZM98.6643 15.7624L103.642 13.7406C103.366 13.0973 102.536 12.5459 101.614 12.5459C100.323 12.5459 98.5722 13.6487 98.6643 15.7624Z" fill="#E3E3E3"></path><path d="M9.59852 22.8874L3.53258 19.676C3.07984 19.4363 2.91768 18.8679 3.1758 18.4254L11.7295 3.76192C11.973 3.34447 12.5025 3.19341 12.9296 3.41954L18.9956 6.63092C19.4483 6.87061 19.6105 7.43899 19.3523 7.88149L10.7986 22.545C10.5551 22.9624 10.0257 23.1135 9.59852 22.8874Z" fill="#797979"></path><path d="M28.8388 18.0864L19.9634 2.93745C18.7227 0.879812 16.0503 0.131749 13.8554 1.34758C11.6606 2.56342 10.9922 5.18262 12.233 7.33306L21.1083 22.482C22.3491 24.5397 25.0215 25.2878 27.2164 24.0719C29.3163 22.856 30.0796 20.1432 28.8388 18.0864Z" fill="#515151"></path><path d="M7.1578 24.6575C9.61837 24.6575 11.613 22.7183 11.613 20.3262C11.613 17.9341 9.61837 15.9949 7.1578 15.9949C4.69728 15.9949 2.70264 17.9341 2.70264 20.3262C2.70264 22.7183 4.69728 24.6575 7.1578 24.6575Z" fill="#515151"></path></g></svg>