<svg xmlns="http://www.w3.org/2000/svg" width="142" height="29" viewBox="0 0 142 29" fill="none"><g clip-path="url(#clip0_4_312)"><path d="M66.6971 17.3815L57.654 1.02344H52.3359V27.9029H56.6748V7.30182L64.6043 21.5671H68.6736L76.6031 7.30182V27.9029H80.9431V1.02344H75.7401L66.6971 17.3815ZM99.5373 8.75131C98.1612 7.84889 96.5196 7.39768 94.6126 7.39768C92.6929 7.39768 90.9939 7.84569 89.5153 8.7417C88.0368 9.63771 86.8816 10.8793 86.0497 12.4664C85.2176 14.0535 84.8016 15.8774 84.8018 17.9383C84.8018 19.9742 85.2274 21.779 86.0785 23.3525C86.9297 24.926 88.1168 26.1581 89.64 27.0486C91.163 27.9378 92.9294 28.3826 94.9392 28.3827C98.2668 28.3827 101.076 27.3332 103.368 25.2341L101.064 22.4117C100.245 23.1924 99.368 23.7747 98.434 24.1587C97.4999 24.5427 96.3863 24.7347 95.0933 24.7347C93.4807 24.7347 92.1463 24.2644 91.0901 23.3237C90.0338 22.383 89.3715 21.0934 89.1031 19.4548H103.829V18.2646C103.829 16.0758 103.458 14.1687 102.715 12.5433C101.973 10.9179 100.914 9.65391 99.5373 8.75131ZM89.1031 16.2872C89.3591 14.6873 89.9702 13.4137 90.9365 12.4664C91.9029 11.5191 93.1029 11.0454 94.5365 11.0454C96.0084 11.0454 97.1988 11.5095 98.1076 12.4375C99.0165 13.3656 99.5349 14.6488 99.6629 16.2872H89.1031ZM113.276 2.00268H109.09V7.87783H105.096V11.4297H109.09V20.9334C109.09 25.8744 111.349 28.3447 115.867 28.3443C116.493 28.3461 117.119 28.3012 117.739 28.21C118.28 28.1319 118.816 28.0164 119.342 27.8641V24.3507C118.881 24.4276 118.459 24.4885 118.075 24.5334C117.691 24.5782 117.224 24.6006 116.673 24.6004C115.432 24.6004 114.555 24.2804 114.044 23.6404C113.532 23.0004 113.276 21.9317 113.276 20.4343V11.4297H119.342V7.87783H113.275L113.276 2.00268ZM137.045 7.87783V10.4511C136.341 9.48898 135.411 8.71436 134.338 8.1951C133.25 7.66406 132.021 7.39844 130.652 7.39825C128.834 7.39825 127.224 7.84625 125.823 8.74227C124.422 9.63827 123.324 10.873 122.53 12.4466C121.736 14.0211 121.34 15.8322 121.34 17.88C121.34 19.916 121.73 21.7239 122.511 23.3039C123.291 24.8838 124.363 26.1254 125.727 27.0285C127.09 27.931 128.655 28.3822 130.421 28.3822C131.854 28.3822 133.134 28.0973 134.261 27.5276C135.388 26.958 136.316 26.1485 137.045 25.0992V27.9023H141.153V7.87783H137.045ZM136.968 20.8949C136.52 22.0215 135.79 22.9175 134.779 23.583C133.768 24.2484 132.617 24.5812 131.324 24.5812C129.571 24.5812 128.182 23.9796 127.157 22.7765C126.133 21.5734 125.621 19.9414 125.621 17.8806C125.621 15.8328 126.152 14.2072 127.215 13.0039C128.277 11.8006 129.704 11.1992 131.496 11.1996C132.763 11.1996 133.88 11.5295 134.846 12.1893C135.812 12.8491 136.519 13.7483 136.967 14.8869L136.968 20.8949Z" fill="#E3E3E3"></path><mask id="mask0_4_312" style="mask-type:luminance" maskUnits="userSpaceOnUse" x="0" y="0" width="44" height="29"><path d="M31.3704 0.113281C27.8813 0.113281 25.1548 2.74136 22.6848 6.07977C19.2918 1.75958 16.4542 0.113281 13.0587 0.113281C6.13557 0.113281 0.831055 9.12296 0.831055 18.6592C0.831055 24.6256 3.71816 28.3905 8.55383 28.3905C12.0342 28.3905 14.5373 26.7504 18.9881 18.9713C18.9881 18.9713 20.8431 15.6957 22.1192 13.4392C22.5662 14.161 23.0375 14.9389 23.5331 15.7729L25.6197 19.2832C29.6845 26.0853 31.9492 28.3905 36.054 28.3905C40.7649 28.3905 43.3865 24.5753 43.3865 18.4838C43.3834 8.49888 37.9593 0.113281 31.3704 0.113281ZM15.5937 16.865C11.9861 22.5204 10.738 23.7881 8.72915 23.7881C6.66209 23.7881 5.43345 21.9732 5.43345 18.7372C5.43345 11.8141 8.88524 4.73519 13.0001 4.73519C15.2284 4.73519 17.0904 6.02208 19.9428 10.1053C17.2344 14.2595 15.5937 16.865 15.5937 16.865ZM29.21 16.1532L26.7151 11.9922C26.0399 10.8943 25.391 9.88361 24.7685 8.96008C27.0171 5.48934 28.8721 3.76104 31.078 3.76104C35.6609 3.76104 39.327 10.5085 39.327 18.7966C39.327 21.9557 38.2924 23.7889 36.1484 23.7889C34.0935 23.7881 33.1117 22.431 29.21 16.1532Z" fill="white"></path></mask><g mask="url(#mask0_4_312)"><mask id="mask1_4_312" style="mask-type:luminance" maskUnits="userSpaceOnUse" x="0" y="-1" width="44" height="30"><path d="M43.5246 -0.0283203H0.689453V28.5316H43.5246V-0.0283203Z" fill="white"></path></mask><g mask="url(#mask1_4_312)"><mask id="mask2_4_312" style="mask-type:luminance" maskUnits="userSpaceOnUse" x="0" y="-1" width="44" height="30"><path d="M43.5243 -0.0263672H0.689209V28.5336H43.5243V-0.0263672Z" fill="white"></path></mask><g mask="url(#mask2_4_312)"><path d="M43.6812 0.112305H0.831055V28.6836H43.6812V0.112305Z" fill="#797979"></path></g></g></g><path d="M26.7152 11.9932C21.3064 3.19647 17.705 0.114258 13.0588 0.114258L13.0002 4.73616C16.0423 4.73616 18.4012 7.13492 23.531 15.7739L23.8437 16.2998L26.7152 11.9932Z" fill="#797979"></path></g><defs><clipPath id="clip0_4_312"><rect width="142" height="29" fill="white"></rect></clipPath></defs></svg>